# Blender v2.77 (sub 0) OBJ File: ''
# www.blender.org
mtllib bunny4.mtl
o bunny4
v -0.063106 0.486299 0.001084
v -0.140932 0.477695 0.054393
v -0.054151 0.496607 0.106273
v -0.361864 0.721166 -0.203547
v -0.400881 0.710494 -0.224827
v -0.377065 0.635148 -0.029667
v -0.440990 0.325190 0.125812
v -0.394426 0.386608 0.161846
v -0.440474 0.384574 0.055657
v -0.043098 0.465261 0.173886
v -0.145074 0.440851 0.149744
v 0.053053 0.495486 0.129799
v -0.223814 0.458684 0.136870
v -0.308695 0.677813 -0.232481
v -0.308387 0.658480 -0.131826
v -0.388206 0.408718 0.247151
v -0.379996 0.489393 0.271626
v -0.458859 0.462483 0.225150
v -0.358855 0.532588 0.247891
v -0.428355 0.537245 0.227038
v 0.022528 0.501873 0.003402
v -0.406242 0.594283 0.189510
v -0.418473 0.396515 0.010750
v -0.470506 0.423609 0.060677
v 0.203844 0.281190 -0.063253
v 0.223249 0.345292 0.031561
v 0.208954 0.207759 -0.036861
v -0.334017 0.424165 0.261597
v -0.352905 0.580965 -0.143562
v -0.320956 0.595542 -0.156884
v -0.327955 0.553891 -0.038357
v -0.309395 0.623159 0.022953
v -0.353097 0.628963 0.126908
v -0.279288 0.626024 0.058945
v 0.045783 0.182206 0.278289
v -0.013028 0.158807 0.283739
v 0.076713 0.122597 0.248351
v 0.298615 0.123753 0.033999
v 0.283819 0.170704 -0.006537
v 0.295933 0.212681 0.085175
v -0.016319 0.235756 0.293635
v 0.095090 0.241635 0.261490
v -0.126631 0.626273 -0.020086
v -0.246956 0.565854 0.038777
v -0.204551 0.600721 -0.033721
v -0.352484 0.624394 0.011158
v -0.309959 0.592180 -0.026555
v -0.297230 0.229705 0.216674
v -0.272536 0.335049 0.223297
v -0.364044 0.307947 0.209886
v 0.019187 0.101435 0.270475
v 0.085047 0.023916 0.215756
v 0.062922 0.072256 0.225671
v -0.056737 0.083452 0.246445
v -0.202306 0.388544 0.191813
v -0.326200 0.399520 0.186888
v 0.000400 0.404743 0.214952
v 0.083777 0.438704 0.177078
v -0.357689 0.493437 -0.046353
v -0.433758 0.462338 -0.013721
v -0.380078 0.564084 -0.027242
v 0.210911 0.089475 0.164797
v 0.253018 0.167663 0.150647
v 0.184692 0.120884 0.166571
v -0.193606 0.084283 0.196978
v -0.261584 0.098929 0.165995
v -0.291878 0.049825 0.239934
v -0.208311 0.285590 0.215982
v 0.111039 0.284214 -0.126677
v 0.036557 0.345927 -0.111804
v 0.103427 0.351794 -0.108900
v -0.208214 0.205650 0.214728
v -0.130984 0.324426 0.228396
v -0.155964 0.263876 0.209253
v -0.253068 0.596193 0.060474
v -0.276512 0.612623 0.143680
v -0.132511 0.129116 0.178255
v -0.101207 0.398178 0.204174
v -0.324179 0.069509 0.163511
v -0.250849 0.079323 0.086181
v -0.292349 0.047185 0.100228
v 0.092253 0.375151 0.215330
v -0.010729 0.357642 0.221868
v 0.083066 0.488114 0.011023
v -0.275950 0.571092 -0.004533
v 0.109436 0.316434 0.239686
v -0.086415 0.181748 0.269651
v -0.059651 0.324038 0.280301
v -0.124237 0.260877 0.276273
v 0.219317 0.185167 0.128813
v 0.235506 0.214316 0.035756
v 0.231017 0.097849 -0.031684
v 0.289827 0.120703 0.120124
v -0.306219 0.461626 0.219189
v 0.177473 0.309363 0.196968
v 0.160326 0.428081 0.138950
v -0.307901 0.535720 0.175204
v -0.310224 0.601100 0.182741
v -0.358499 0.600986 -0.223241
v -0.314895 0.660037 -0.305131
v 0.213847 0.049430 0.002538
v -0.262805 0.515400 0.161392
v -0.202662 0.019964 0.218351
v -0.051220 0.669262 -0.076307
v -0.201786 0.649394 0.010234
v -0.149901 0.642368 0.009129
v -0.476550 0.471283 0.109428
v -0.446967 0.529261 0.156163
v -0.441322 0.545892 0.037228
v -0.127505 0.755871 -0.038429
v -0.074378 0.712516 -0.094292
v 0.183725 0.225970 0.191436
v 0.122437 0.178317 0.226153
v -0.100244 0.746275 -0.080065
v 0.222978 0.304101 0.118910
v -0.218519 0.495632 0.069571
v -0.039986 0.738546 -0.162233
v 0.166967 0.382722 -0.055066
v 0.153802 0.445713 0.032289
v 0.252558 0.068884 0.103630
v -0.091491 0.784799 -0.093074
v -0.316242 0.750455 -0.298707
v 0.114758 0.023654 0.128977
v -0.341082 0.023159 0.173791
v -0.088041 0.662793 -0.082796
v -0.115650 0.720979 -0.106674
v -0.339100 0.426478 -0.049334
v -0.373703 0.210477 0.168740
v -0.408411 0.261413 0.167072
v -0.448071 0.279739 0.060221
v -0.266231 0.157066 0.161468
v -0.347125 0.148748 0.078235
v -0.249912 0.120674 0.076455
v -0.466895 0.446514 0.151777
v -0.063711 0.342925 -0.123010
v -0.078899 0.315315 -0.180864
v 0.106439 0.074824 -0.112543
v 0.184488 0.127019 -0.034789
v 0.116983 0.052311 -0.029590
v 0.126137 0.191473 -0.126415
v -0.201870 0.473895 -0.041149
v 0.081028 0.020533 -0.089351
v -0.169584 0.060888 -0.149562
v -0.180317 0.014166 -0.155455
v -0.214389 0.053900 -0.123316
v -0.128165 0.035211 0.071329
v -0.155288 0.038678 0.175067
v -0.151823 0.012490 0.070946
v 0.117311 0.121472 -0.126281
v 0.106266 0.017202 0.009047
v -0.297663 0.148918 -0.017035
v -0.316056 0.209518 -0.083831
v -0.222619 0.247574 -0.102381
v -0.403698 0.337915 -0.048564
v -0.175016 0.203240 -0.086281
v -0.172835 0.293610 -0.120834
v -0.461239 0.603612 0.087612
v -0.387513 0.603910 -0.014341
v -0.209536 0.710022 -0.021841
v -0.376214 0.753221 -0.269319
v -0.142800 0.446223 -0.051040
v 0.116542 0.471992 0.107064
v 0.101706 0.444702 -0.049388
v -0.099156 0.102421 0.239317
v -0.136347 0.022971 0.276079
v -0.168460 0.058398 0.246156
v -0.221163 0.079571 -0.055010
v -0.230641 0.152835 -0.063391
v -0.159137 0.103757 -0.050333
v -0.210647 0.682141 -0.053484
v -0.279400 0.347316 -0.106407
v -0.369341 0.017917 0.039207
v -0.312019 0.016509 0.101911
v -0.343902 0.070384 0.029786
v -0.293885 0.090084 0.031131
v 0.174190 0.031015 0.103463
v -0.287207 0.135929 0.024141
v -0.354749 0.648592 -0.220309
v -0.371642 0.662105 -0.182077
v -0.386062 0.600437 -0.048437
v -0.087665 0.271020 -0.196870
v -0.160550 0.252080 -0.169742
v -0.146234 0.380276 -0.107302
v -0.228371 0.423161 -0.083887
v -0.093283 0.172918 -0.191377
v -0.131555 0.094483 -0.130023
v 0.012278 0.415131 -0.102364
v -0.039860 0.462950 -0.055999
v -0.242946 0.013348 -0.067930
v -0.185612 0.017293 0.151117
v -0.327653 0.256532 -0.095630
v -0.408089 0.245374 -0.025827
v -0.448904 0.407228 0.208566
v 0.044998 0.310768 -0.156941
v -0.367800 0.189613 -0.009656
v -0.276739 0.088696 -0.025437
v -0.401516 0.200504 0.053579
v -0.343640 0.013410 -0.034094
v -0.066585 0.063924 -0.136621
v 0.001030 0.017794 -0.119455
v -0.254776 0.487189 -0.021512
v 0.019388 0.234590 -0.176580
v -0.166159 0.013557 -0.116272
v 0.011540 0.012525 0.080081
v 0.048057 0.043356 0.165194
v -0.023071 0.038104 0.062750
v 0.010497 0.107935 -0.155113
v 0.023743 0.174282 -0.165812
v 0.066637 0.018525 -0.068276
v -0.155494 0.038622 -0.092210
v 0.039489 0.041082 -0.057124
v 0.039826 0.018190 0.188803
v 0.066367 0.017504 0.142429
v -0.115264 0.019619 0.227189
v -0.113591 0.040987 0.192988
v 0.008150 0.016811 0.024121
v -0.198890 0.014300 0.011939
v -0.274078 0.013232 0.078887
v -0.206478 0.027684 0.041579
v -0.188781 0.037884 -0.034982
v 0.076363 0.027265 0.017922
v 0.024097 0.020534 0.186454
v -0.085571 0.042846 0.197883
v -0.111616 0.041667 0.193552
vn -0.5774 0.5774 -0.5773
vn -0.1251 0.9461 0.2987
vn -0.5773 0.5774 0.5774
vn 0.3923 0.6505 0.6504
vn -0.8027 0.0671 -0.5926
vn -0.5773 0.5774 0.5773
vn -0.6738 0.3034 0.6738
vn -0.5773 -0.5774 0.5774
vn -0.6162 -0.6162 -0.4905
vn -0.4738 0.6227 0.6227
vn -0.4834 0.6190 0.6190
vn 0.5774 0.5774 0.5773
vn 0.5773 0.5774 0.5773
vn 0.6437 0.6438 0.4138
vn 0.6087 0.6087 0.5090
vn -0.5401 -0.5951 0.5951
vn -0.2720 0.5903 0.7600
vn -0.7071 -0.0102 0.7071
vn 0.5774 0.5773 0.5773
vn -0.5773 0.5773 0.5774
vn 0.2506 0.6846 -0.6845
vn -0.5774 0.5773 0.5773
vn -0.6784 -0.2823 -0.6783
vn -0.5773 -0.5774 -0.5774
vn 0.6587 0.3637 -0.6587
vn 0.6438 0.6438 -0.4134
vn 0.5932 -0.5443 -0.5932
vn 0.5774 -0.5773 0.5774
vn -0.5774 -0.5774 -0.5773
vn 0.5774 -0.5774 -0.5773
vn 0.5773 -0.5774 -0.5774
vn -0.5620 0.5849 -0.5849
vn -0.2720 0.6804 0.6804
vn 0.5774 0.5773 0.5774
vn 0.5856 -0.5605 0.5856
vn -0.1796 -0.6956 0.6956
vn 0.5774 -0.5773 0.5773
vn 0.5773 0.5774 -0.5774
vn 0.6411 0.6410 0.4220
vn 0.0217 0.2563 0.9664
vn 0.6985 0.1554 0.6985
vn 0.7061 -0.7060 0.0544
vn 0.1083 -0.7029 -0.7029
vn -0.2045 0.9699 0.1319
vn 0.5773 0.5774 -0.5773
vn -0.5774 -0.5774 0.5773
vn 0.0098 0.7071 0.7071
vn -0.6953 0.1817 0.6953
vn 0.4909 -0.6160 0.6160
vn 0.5773 -0.5774 0.5774
vn 0.0005 -0.4792 0.8777
vn -0.1524 0.6988 0.6989
vn 0.4878 0.6173 0.6173
vn -0.5813 0.2928 -0.7592
vn -0.7008 0.1336 -0.7008
vn -0.5890 -0.5534 -0.5890
vn 0.3315 -0.6671 0.6671
vn -0.5774 0.5773 0.5774
vn -0.6917 0.0683 0.7189
vn 0.1958 0.0721 0.9780
vn 0.5774 0.5774 -0.5773
vn 0.5774 0.5773 -0.5774
vn 0.5689 0.5815 -0.5815
vn 0.0558 -0.7060 0.7060
vn -0.6195 -0.4821 0.6195
vn -0.6577 0.3671 0.6578
vn -0.5610 0.5854 0.5854
vn -0.6986 0.6986 -0.1546
vn -0.6431 0.6431 0.4158
vn -0.7058 0.7058 0.0607
vn 0.1440 0.6997 0.6997
vn 0.5773 0.5773 -0.5774
vn 0.7067 -0.0330 -0.7067
vn -0.5773 -0.5773 0.5774
vn -0.4228 0.6408 0.6408
vn -0.7067 0.0329 0.7067
vn 0.5773 0.5774 0.5774
vn 0.5774 -0.5773 -0.5774
vn 0.5773 -0.5773 0.5774
vn 0.7055 -0.0669 0.7055
vn 0.5773 0.5773 0.5774
vn 0.6252 0.4672 0.6252
vn 0.3560 -0.5807 -0.7321
vn -0.5321 -0.5987 0.5987
vn 0.7600 -0.5365 0.3669
vn -0.7934 0.5864 0.1629
vn -0.6442 0.4123 -0.6442
vn 0.5685 0.5817 0.5817
vn 0.6876 -0.2333 0.6876
vn 0.6929 0.1994 0.6929
vn 0.6247 0.6247 0.4686
vn 0.5775 0.2456 -0.7786
vn 0.6004 0.6005 -0.5281
vn 0.3576 0.9304 -0.0811
vn 0.4857 0.6431 -0.5920
vn 0.5773 -0.5774 0.5773
vn -0.6834 -0.6834 0.2569
vn 0.1904 -0.6942 -0.6942
vn -0.7044 -0.0870 -0.7044
vn -0.5774 0.5773 -0.5774
vn -0.5773 -0.5774 0.5773
vn -0.6921 -0.6921 -0.2047
vn -0.6542 -0.6542 0.3795
vn -0.6227 -0.6227 0.4738
vn -0.3629 0.6589 -0.6589
vn -0.4425 0.6341 -0.6341
vn 0.6140 -0.4960 -0.6140
vn 0.6896 -0.2212 -0.6896
vn 0.5098 0.6083 -0.6083
vn 0.5773 -0.5773 -0.5774
vn -0.5773 0.5774 -0.5773
vn -0.5260 -0.6014 -0.6014
vn -0.5773 0.5773 -0.5774
vn 0.7035 -0.7035 -0.1014
vn 0.6883 -0.6883 -0.2292
vn 0.5773 -0.5774 -0.5773
vn 0.6268 -0.6769 -0.3859
vn -0.5774 -0.5773 -0.5773
vn -0.5773 -0.5773 -0.5774
vn -0.4125 -0.6441 -0.6442
vn -0.6171 0.4883 -0.6171
vn -0.7024 0.7023 -0.1159
vn -0.7040 0.7040 0.0932
vn -0.6565 0.6565 -0.3716
vn 0.0947 0.7039 -0.7039
vn -0.3508 -0.6622 0.6622
vn -0.5774 -0.5773 -0.5774
vn -0.6133 0.4977 -0.6133
vn -0.5773 0.5774 -0.5774
vn -0.5774 0.5773 -0.5773
vn -0.6756 -0.6517 0.3447
vn -0.6191 -0.6191 0.4831
vn -0.6867 0.6867 0.2385
vn 0.5774 -0.5774 0.5773
vn -0.7027 -0.7027 0.1115
vn -0.5991 -0.5313 -0.5990
vn -0.7896 -0.4714 -0.3928
vn -0.3500 0.6624 -0.6624
vn -0.6706 0.3172 -0.6706
vn -0.1324 0.7009 -0.7009
vn -0.3382 0.6654 -0.6654
vn -0.5773 -0.5774 -0.5773
vn -0.5942 0.5421 -0.5942
vn 0.3044 0.6736 -0.6736
vn -0.2874 0.6773 -0.6773
vn 0.7042 -0.7042 0.0904
vn -0.5974 -0.5350 -0.5974
vn -0.7041 -0.7042 -0.0914
vn 0.2878 -0.6772 -0.6772
vn 0.4303 -0.6383 -0.6383
vn 0.7064 0.0449 -0.7064
vn 0.4229 -0.6408 0.6408
vn -0.5825 -0.5825 0.5669
vn -0.5842 -0.5842 -0.5634
vn -0.7009 -0.7008 0.1328
vn -0.4331 -0.8973 0.0848
vn -0.6021 -0.6020 0.5245
vn -0.4905 -0.6162 -0.6162
vn -0.6266 -0.7077 0.3264
vn 0.1533 -0.7179 -0.6791
vn 0.2246 -0.6890 -0.6890
vn 0.7071 -0.7071 -0.0066
vn 0.1387 -0.9688 0.2053
vn 0.1345 -0.7007 0.7007
vn 0.6804 -0.6804 0.2722
vn 0.1247 -0.7016 0.7016
vn 0.2136 0.0277 -0.9765
vn 0.0628 -0.9741 0.2170
vn -0.4010 0.5697 0.7174
usemtl material_0.004
s 1
f 1//1 2//2 3//3
f 4//4 5//5 6//6
f 7//7 8//8 9//9
f 10//10 2//2 11//11
f 12//12 3//3 10//10
f 2//2 13//13 11//11
f 14//14 4//4 15//15
f 16//16 17//17 18//18
f 19//19 20//20 17//17
f 21//21 3//3 12//12
f 19//19 22//22 20//20
f 23//23 9//9 24//24
f 25//25 26//26 27//27
f 16//16 28//28 17//17
f 29//29 30//30 31//31
f 32//32 33//33 34//34
f 35//35 36//36 37//37
f 38//31 39//38 40//39
f 41//40 35//35 42//41
f 43//37 44//42 45//43
f 15//15 46//44 47//45
f 48//46 49//47 50//48
f 37//37 36//36 51//49
f 52//37 53//50 54//51
f 49//47 55//52 56//50
f 57//53 58//13 12//12
f 59//54 60//55 61//56
f 62//57 63//19 64//37
f 65//58 66//22 67//59
f 68//60 49//47 48//46
f 36//36 35//35 41//40
f 2//2 10//10 3//3
f 69//61 70//62 71//63
f 72//64 68//60 48//46
f 68//60 55//52 49//47
f 72//64 66//22 65//58
f 68//60 73//22 55//52
f 11//11 13//13 55//52
f 72//64 74//65 68//60
f 75//34 34//34 76//12
f 21//21 1//1 3//3
f 77//66 72//64 65//58
f 12//12 10//10 57//53
f 77//66 74//65 72//64
f 74//65 73//22 68//60
f 73//22 78//67 55//52
f 78//67 11//11 55//52
f 79//68 80//69 81//70
f 53//50 51//49 54//51
f 82//13 58//13 83//71
f 4//4 6//6 46//44
f 21//21 12//12 84//72
f 47//45 85//73 31//31
f 83//71 78//67 73//22
f 57//53 10//10 78//67
f 10//10 11//11 78//67
f 86//19 82//13 83//71
f 87//74 88//75 89//76
f 63//19 90//77 64//37
f 54//51 36//36 87//74
f 41//40 88//75 87//74
f 44//42 85//73 45//43
f 57//53 78//67 83//71
f 87//74 36//36 41//40
f 54//51 51//49 36//36
f 91//62 27//27 26//26
f 53//50 37//37 51//49
f 92//78 39//38 38//31
f 37//37 42//41 35//35
f 17//17 28//28 19//19
f 93//79 40//39 63//19
f 28//28 94//80 19//19
f 82//13 95//81 96//77
f 94//80 97//82 19//19
f 94//80 28//28 56//50
f 97//82 98//12 19//19
f 99//24 100//83 30//30
f 92//78 38//31 101//30
f 42//41 86//19 41//40
f 96//77 58//13 82//13
f 102//34 97//82 94//80
f 65//58 67//59 103//84
f 104//85 105//13 106//81
f 104//85 106//81 43//37
f 13//13 94//80 56//50
f 107//86 108//58 109//87
f 34//34 105//13 110//88
f 93//79 38//31 40//39
f 102//34 94//80 13//13
f 104//85 111//81 105//13
f 102//34 98//12 97//82
f 64//37 112//89 113//50
f 111//81 114//90 105//13
f 86//19 95//81 82//13
f 112//89 86//19 42//41
f 52//37 64//37 53//50
f 115//34 95//81 112//89
f 113//50 112//89 42//41
f 41//40 86//19 88//75
f 13//13 116//91 102//34
f 61//56 29//29 31//31
f 37//37 113//50 42//41
f 111//81 104//85 117//92
f 13//13 56//50 55//52
f 95//81 115//34 96//77
f 26//26 118//45 119//93
f 90//77 115//34 112//89
f 120//28 93//79 62//57
f 112//89 95//81 86//19
f 58//13 96//77 12//12
f 114//90 110//88 105//13
f 75//34 105//13 34//34
f 121//94 110//88 114//90
f 122//95 14//14 100//83
f 123//96 64//37 52//37
f 90//77 112//89 64//37
f 106//81 105//13 75//34
f 93//79 63//19 62//57
f 116//91 85//73 44//42
f 114//90 117//92 121//94
f 83//71 58//13 57//53
f 64//37 37//37 53//50
f 44//42 106//81 75//34
f 43//37 106//81 44//42
f 25//25 118//45 26//26
f 111//81 117//92 114//90
f 64//37 113//50 37//37
f 81//70 124//97 79//68
f 117//92 125//98 126//99
f 79//68 66//22 80//69
f 31//31 30//30 47//45
f 60//55 59//54 127//100
f 128//46 129//101 130//102
f 30//30 15//15 47//45
f 131//101 132//103 133//101
f 18//18 108//58 134//104
f 125//98 117//92 104//85
f 45//43 126//99 125//98
f 135//105 70//62 136//106
f 137//30 138//107 139//30
f 109//87 24//24 107//86
f 14//14 15//15 30//30
f 140//108 25//25 27//27
f 141//109 116//91 2//2
f 137//30 139//30 142//110
f 143//111 144//112 145//113
f 146//114 147//30 148//115
f 91//62 115//34 90//77
f 140//108 27//27 149//116
f 142//110 139//30 150//117
f 151//118 152//119 153//120
f 9//9 23//23 154//121
f 76//12 98//12 102//34
f 125//98 104//85 43//37
f 155//24 153//120 156//113
f 91//62 26//26 115//34
f 149//116 138//107 137//30
f 44//42 76//12 102//34
f 149//116 27//27 138//107
f 26//26 96//77 115//34
f 101//30 38//31 120//28
f 44//42 75//34 76//12
f 109//87 157//122 158//100
f 120//28 38//31 93//79
f 110//88 159//123 34//34
f 44//42 102//34 116//91
f 46//44 6//6 158//100
f 66//22 131//101 80//69
f 40//39 90//77 63//19
f 91//62 90//77 40//39
f 158//100 157//122 46//44
f 46//44 33//33 32//32
f 134//104 107//86 24//24
f 122//95 4//4 14//14
f 160//124 5//5 4//4
f 83//71 88//75 86//19
f 46//44 157//122 33//33
f 33//33 157//122 22//22
f 116//91 13//13 2//2
f 67//59 66//22 79//68
f 109//87 108//58 157//122
f 76//12 33//33 98//12
f 141//109 2//2 161//125
f 26//26 119//93 96//77
f 96//77 119//93 162//12
f 160//124 4//4 122//95
f 34//34 33//33 76//12
f 89//76 74//65 77//66
f 162//12 12//12 96//77
f 19//19 98//12 22//22
f 4//4 46//44 15//15
f 33//33 22//22 98//12
f 163//61 84//72 119//93
f 84//72 162//12 119//93
f 30//30 100//83 14//14
f 84//72 12//12 162//12
f 54//51 87//74 164//3
f 80//69 131//101 133//101
f 50//48 56//50 8//8
f 50//48 49//47 56//50
f 164//3 87//74 77//66
f 77//66 87//74 89//76
f 103//84 165//126 166//6
f 66//22 72//64 131//101
f 164//3 77//66 65//58
f 50//48 129//101 128//46
f 164//3 166//6 165//126
f 48//46 50//48 128//46
f 89//76 73//22 74//65
f 167//1 168//127 169//128
f 166//6 164//3 65//58
f 17//17 20//20 18//18
f 170//129 126//99 45//43
f 54//51 164//3 165//126
f 108//58 22//22 157//122
f 88//75 73//22 89//76
f 154//121 127//100 171//130
f 130//102 129//101 7//7
f 88//75 83//71 73//22
f 172//131 173//132 174//133
f 173//132 81//70 174//133
f 174//133 81//70 175//3
f 8//8 7//7 50//48
f 103//84 166//6 65//58
f 176//134 64//37 123//96
f 81//70 80//69 175//3
f 168//127 155//24 169//128
f 80//69 133//101 177//135
f 175//3 80//69 177//135
f 50//48 7//7 129//101
f 178//136 160//124 100//83
f 160//124 179//119 5//5
f 178//136 179//119 160//124
f 180//137 178//136 99//24
f 181//138 182//139 136//106
f 183//140 184//141 161//125
f 29//29 180//137 99//24
f 185//142 186//143 182//139
f 179//119 180//137 5//5
f 180//137 179//119 178//136
f 180//137 6//6 5//5
f 155//24 156//113 182//139
f 21//21 163//61 187//144
f 186//143 155//24 182//139
f 21//21 187//144 188//145
f 27//27 91//62 138//107
f 121//94 117//92 126//99
f 169//128 155//24 186//143
f 134//104 108//58 107//86
f 145//113 189//29 167//1
f 165//126 103//84 190//146
f 191//147 192//142 154//121
f 9//9 130//102 7//7
f 193//101 18//18 134//104
f 159//123 110//88 121//94
f 61//56 180//137 29//29
f 159//123 121//94 170//129
f 180//137 61//56 158//100
f 158//100 6//6 180//137
f 70//62 194//72 136//106
f 195//29 192//142 152//119
f 161//125 188//145 183//140
f 32//32 159//123 170//129
f 23//23 127//100 154//121
f 196//113 177//135 151//118
f 2//2 1//1 161//125
f 186//143 145//113 169//128
f 156//113 135//105 136//106
f 69//61 194//72 70//62
f 192//142 130//102 154//121
f 18//18 20//20 108//58
f 22//22 108//58 20//20
f 175//3 177//135 196//113
f 24//24 61//56 60//55
f 109//87 61//56 24//24
f 32//32 34//34 159//123
f 195//29 197//148 192//142
f 192//142 197//148 130//102
f 130//102 9//9 154//121
f 109//87 158//100 61//56
f 23//23 24//24 60//55
f 163//61 118//45 187//144
f 198//142 167//1 189//29
f 196//113 174//133 175//3
f 71//63 25//25 69//61
f 40//39 39//38 91//62
f 46//44 32//32 47//45
f 144//112 199//149 200//150
f 147//30 190//146 148//115
f 187//144 118//45 70//62
f 85//73 47//45 32//32
f 187//144 135//105 188//145
f 118//45 71//63 70//62
f 145//113 186//143 143//111
f 91//62 39//38 138//107
f 188//145 135//105 183//140
f 135//105 156//113 183//140
f 84//72 163//61 21//21
f 201//72 184//141 127//100
f 145//113 167//1 169//128
f 201//72 141//109 184//141
f 194//72 202//151 136//106
f 116//91 201//72 85//73
f 201//72 116//91 141//109
f 121//94 126//99 170//129
f 71//63 118//45 25//25
f 144//112 200//150 203//152
f 161//125 1//1 188//145
f 1//1 21//21 188//145
f 140//108 69//61 25//25
f 118//45 163//61 119//93
f 141//109 161//125 184//141
f 85//73 32//32 170//129
f 192//142 191//147 152//119
f 171//130 127//100 184//141
f 151//118 153//120 168//127
f 195//29 152//119 151//118
f 59//54 31//31 201//72
f 156//113 136//106 182//139
f 144//112 143//111 199//149
f 191//147 154//121 171//130
f 198//142 196//113 167//1
f 101//30 139//30 92//78
f 92//78 139//30 138//107
f 160//124 122//95 100//83
f 191//147 171//130 153//120
f 196//113 168//127 167//1
f 60//55 127//100 23//23
f 151//118 168//127 196//113
f 171//130 183//140 156//113
f 101//30 150//117 139//30
f 202//151 69//61 140//108
f 204//153 205//154 206//155
f 207//31 140//108 149//116
f 152//119 191//147 153//120
f 183//140 171//130 184//141
f 59//54 61//56 31//31
f 202//151 194//72 69//61
f 140//108 207//31 208//116
f 140//108 208//116 202//151
f 200//150 137//30 142//110
f 149//116 137//30 207//31
f 137//30 200//150 199//149
f 100//83 99//24 178//136
f 199//149 207//31 137//30
f 92//78 138//107 39//38
f 59//54 201//72 127//100
f 185//142 202//151 208//116
f 181//138 136//106 202//151
f 120//28 176//134 101//30
f 70//62 135//105 187//144
f 171//130 156//113 153//120
f 185//142 208//116 207//31
f 31//31 85//73 201//72
f 185//142 207//31 199//149
f 85//73 170//129 45//43
f 185//142 181//138 202//151
f 168//127 153//120 155//24
f 174//133 198//142 172//131
f 186//143 185//142 199//149
f 203//152 209//156 210//79
f 173//132 124//97 81//70
f 185//142 182//139 181//138
f 143//111 186//143 199//149
f 198//142 174//133 196//113
f 209//156 211//157 210//79
f 52//37 212//158 213//159
f 123//96 52//37 213//159
f 9//9 134//104 24//24
f 52//37 165//126 214//160
f 9//9 8//8 134//104
f 176//134 123//96 150//117
f 205//154 215//161 206//155
f 216//118 204//153 206//155
f 150//117 216//118 209//156
f 52//37 214//160 212//158
f 209//156 216//118 211//157
f 134//104 8//8 193//101
f 214//160 165//126 190//146
f 120//28 62//57 176//134
f 206//155 146//114 210//79
f 209//156 203//152 200//150
f 215//161 147//30 146//114
f 67//59 79//68 124//97
f 130//102 197//148 128//46
f 193//101 16//16 18//18
f 16//16 193//101 8//8
f 195//29 132//103 197//148
f 197//148 132//103 128//46
f 56//50 16//16 8//8
f 195//29 151//118 132//103
f 56//50 28//28 16//16
f 151//118 177//135 132//103
f 206//155 211//157 216//118
f 215//161 146//114 206//155
f 142//110 209//156 200//150
f 52//37 54//51 165//126
f 131//101 128//46 132//103
f 176//134 62//57 64//37
f 101//30 176//134 150//117
f 131//101 48//46 128//46
f 217//162 198//142 189//29
f 211//157 206//155 210//79
f 144//112 189//29 145//113
f 218//163 172//131 198//142
f 218//163 173//132 172//131
f 99//24 30//30 29//29
f 45//43 125//98 43//37
f 203//152 189//29 144//112
f 203//152 217//162 189//29
f 217//162 218//163 198//142
f 173//132 103//84 124//97
f 219//164 218//163 217//162
f 203//152 220//165 217//162
f 131//101 72//64 48//46
f 210//79 220//165 203//152
f 67//59 124//97 103//84
f 103//84 173//132 190//146
f 142//110 150//117 209//156
f 213//159 205//154 204//153
f 146//114 220//165 210//79
f 221//166 216//118 150//117
f 221//166 150//117 123//96
f 221//166 123//96 213//159
f 204//153 216//118 221//166
f 221//166 213//159 204//153
f 132//103 177//135 133//101
f 220//165 146//114 148//115
f 220//165 148//115 217//162
f 214//160 190//146 147//30
f 205//154 213//159 212//158
f 222//167 212//158 214//160
f 214//160 147//30 215//161
f 222//167 214//160 215//161
f 223//168 215//161 205//154
f 223//168 205//154 212//158
f 222//167 215//161 224//169
f 223//168 212//158 222//167
f 190//146 173//132 218//163
f 217//162 148//115 219//164
f 219//164 148//115 190//146
f 219//164 190//146 218//163
f 224//169 215//161 223//168
